Coordinates
version=1
nRows=10
nColumns=22
inDegrees=yes

Units are S.I. units (second, meters, Newtons, ...)
If the header above contains a line with 'inDegrees', this indicates whether rotational values are in degrees (yes) or radians (no).

endheader
time	pelvis_tilt	pelvis_list	pelvis_rotation	pelvis_tx	pelvis_ty	pelvis_tz	hip_flexion_r	hip_adduction_r	hip_rotation_r	knee_angle_r	ankle_angle_r	subtalar_angle_r	hip_flexion_l	hip_adduction_l	hip_rotation_l	knee_angle_l	ankle_angle_l	subtalar_angle_l	lumbar_extension	lumbar_bending	lumbar_rotation
      6.72000000	    -12.59429783	      3.06373301	    264.66327638	     -0.60776381	      0.94180946	      0.06040687	     -8.72989952	     12.06020331	     -1.15228339	    -18.55252884	     16.38537462	     10.22405245	     32.74347728	    -13.17103101	    -12.49929956	    -17.75283303	      7.95397690	     -8.81375149	     -1.24788099	      8.83341110	      5.90351982
      6.73000000	    -12.53726130	      3.10874263	    264.63582569	     -0.60720972	      0.94094357	      0.07018670	     -8.94227992	     11.83894795	     -0.91380270	    -19.13622891	     16.13029763	     10.94182045	     32.75170016	    -13.39429867	    -13.38788095	    -18.33795061	      7.54739998	     -9.01421428	     -1.09268207	      8.58537478	      5.92922391
      6.74000000	    -12.44092388	      3.17334385	    264.64925613	     -0.60646837	      0.94017289	      0.08007657	     -9.06682554	     11.57692128	     -0.69583605	    -19.80962367	     15.78047024	     11.77471831	     32.76799118	    -13.54525931	    -14.18296169	    -19.03184927	      6.92152325	     -9.23969406	     -0.90690861	      8.29554012	      5.90949294
      6.75000000	    -12.30369649	      3.25579209	    264.71570030	     -0.60556137	      0.93952361	      0.09004791	     -9.09441796	     11.27990468	     -0.50764000	    -20.58151633	     15.33311856	     12.67871044	     32.80363562	    -13.61556743	    -14.84523630	    -19.81898515	      6.08887137	     -9.46814385	     -0.69466603	      7.95465500	      5.82068845
      6.76000000	    -12.11760118	      3.34841217	    264.84498597	     -0.60446228	      0.93901423	      0.10007358	     -9.01301778	     10.94051584	     -0.36665385	    -21.47750895	     14.78930162	     13.65587486	     32.86136672	    -13.58394369	    -15.33882353	    -20.67703766	      5.14795092	     -9.67836270	     -0.46546637	      7.55368288	      5.68017274
      6.77000000	    -11.88361125	      3.44517690	    265.04505284	     -0.60314184	      0.93867138	      0.11012434	     -8.80682573	     10.55933197	     -0.28441587	    -22.52699450	     14.11725831	     14.71607816	     32.93065266	    -13.43324395	    -15.62839422	    -21.55971088	      4.20714297	     -9.83174656	     -0.22918124	      7.09704559	      5.48269600
      6.78000000	    -11.60779842	      3.53210103	    265.32106910	     -0.60161943	      0.93852168	      0.12018345	     -8.48248595	     10.14327025	     -0.26956068	    -23.74029215	     13.30743370	     15.83282891	     32.99966136	    -13.16219811	    -15.70695251	    -22.44819501	      3.37826615	     -9.89799892	     -0.00442329	      6.58554760	      5.22613932
      6.79000000	    -11.30520637	      3.59897699	    265.67399426	     -0.59987916	      0.93856219	      0.13023834	     -8.04173801	      9.70098122	     -0.33370173	    -25.13322868	     12.33960659	     16.97613746	     33.05633015	    -12.78029232	    -15.58637137	    -23.32598597	      2.73646448	     -9.89561765	      0.19319923	      6.03901862	      4.91945940
      6.80000000	    -10.99544030	      3.62629054	    266.09960346	     -0.59794209	      0.93879280	      0.14025637	     -7.49319812	      9.24453081	     -0.49538998	    -26.72595154	     11.22796663	     18.08016308	     33.07464343	    -12.30979888	    -15.29024199	    -24.18066375	      2.29176899	     -9.87289463	      0.33475108	      5.47735915	      4.58416313
      6.81000000	    -10.71077103	      3.62123995	    266.58131667	     -0.59584810	      0.93922714	      0.15027279	     -6.87062802	      8.81674853	     -0.64105742	    -28.45135806	      9.89873083	     19.25645703	     33.03817923	    -11.79915067	    -14.88311106	    -24.98399789	      2.04713960	     -9.88736839	      0.43094167	      4.94189640	      4.20666522
